<svg xmlns="http://www.w3.org/2000/svg" viewBox="-150 0 1200.56 992.23">
  <defs>
    <style>
      .cls-1 {
        fill: none;
        stroke: #000;
        stroke-miterlimit: 10;
      }
    </style>
  </defs>
  <g id="layer-bottom">
    <g>
      <line class="cls-1" x1="566.71" y1="477.33" x2="542.57" y2="500.35"/>
      <g>
        <ellipse class="cls-1" cx="700.76" cy="615.59" rx="53.17" ry="64.36" transform="translate(-224.81 731.02) rotate(-48.41)"/>
        <path class="cls-1" d="M417.57,459.73l76,21a198.31,198.31,0,0,1,39,15c19,10,86,30,90,78s9,75,36,98,54.84,21.47,67,18c42-12,57-42,57-65,0-24-19-56-19-56l-2-38s-16-11-17-7-11,13-31,16-53.61-7.27-68-11c-27-7-71.23-43.23-88-60-18-18-47-45-47-45l-93-30-242-58-146-34s-27-5-29,5l.2.09,324,119,92.8,33.91"/>
      </g>
    </g>
  </g>
  <g id="layer-top">
    <g>
      <g>
        <ellipse class="cls-1" cx="752.56" cy="262.19" rx="60" ry="44.46" transform="translate(-36.5 150.51) rotate(-11.15)"/>
        <path class="cls-1" d="M894.57,189.73c-10,0-34,40-55,40-20.62,0-56-54-122-27-25.28,10.34-45,26-40,71,5.44,49-98,38-98,38s-23,30-37,36-125,46-125,46l-91,34-326,146s2,10,22,6c18.89-3.78,365-111.86,395-120h0l94-36s8-4,13-11,30.31-43.16,34-45c6-3,15-2,15-2s46-25,68-31c1.93-.53,109-10,112-10s34-7,67-35,68-63,74-72S903.11,189.73,894.57,189.73Z"/>
      </g>
      <circle class="cls-1" cx="417.07" cy="425.23" r="22.5"/>
    </g>
    <path class="cls-1" d="M542.57,347.73l16,20h0"/>
  </g>
  <g id="text">
    <g>
      <path d="M59,8.84l-14,39H43.77l-14.11-39H30.9L44.35,46.41,57.81,8.84Z"/>
      <path d="M65.41,15.08a1.56,1.56,0,1,1,3.12,0,1.56,1.56,0,0,1-3.12,0Zm1,6.76h1v26h-1Z"/>
      <path d="M98.82,5.66V21.84h7.48v1H98.82v25h-1v-25H93.42v-1h4.35V5.66A5.66,5.66,0,0,1,103.43,0a5.9,5.9,0,0,1,2.86.85V1.5L103.43,1A4.55,4.55,0,0,0,98.82,5.66Z"/>
      <path d="M112.4,34.84a13.52,13.52,0,1,1,13.52,13.52A13.59,13.59,0,0,1,112.4,34.84Zm26,0a12.48,12.48,0,1,0-12.48,12.48A12.48,12.48,0,0,0,138.4,34.84ZM120.46,15.08a1.56,1.56,0,1,1,3.12,0,1.56,1.56,0,1,1-3.12,0Zm7.8,0a1.56,1.56,0,1,1,3.12,0,1.56,1.56,0,1,1-3.12,0Z"/>
      <path d="M161.41,21.58v1.17a7.56,7.56,0,0,0-2.47-.39,9.07,9.07,0,0,0-9.1,9V47.84h-1v-26h1V27a10.2,10.2,0,0,1,9.1-5.66A14.36,14.36,0,0,1,161.41,21.58Z"/>
      <path d="M168.3,0h1V47.78h-1Zm1.82,33.28,13.26-11.44H185L171.68,33.28,186,47.84h-1.5Z"/>
      <path d="M190.73,34.84a13.52,13.52,0,1,1,13.52,13.52A13.59,13.59,0,0,1,190.73,34.84Zm26,0a12.48,12.48,0,1,0-12.48,12.48A12.48,12.48,0,0,0,216.73,34.84Z"/>
      <path d="M239.74,21.58v1.17a7.56,7.56,0,0,0-2.47-.39,9.07,9.07,0,0,0-9.1,9V47.84h-1v-26h1V27a10.2,10.2,0,0,1,9.1-5.66A14.36,14.36,0,0,1,239.74,21.58Z"/>
      <path d="M249.81,22.88V42.71a4.55,4.55,0,0,0,4.62,4.62h2.86v.19a5.9,5.9,0,0,1-2.86.85,5.66,5.66,0,0,1-5.66-5.66V22.88h-4.35v-1h4.35V10.53h1V21.84h7.6v1Z"/>
      <path d="M288.75,47.32v.52a2.45,2.45,0,0,1-1.5.52c-2.93,0-4.23-1.89-4.23-5.14-2,3.19-6.18,5.14-10.47,5.14-5.14,0-8.13-2.73-8.13-7.09s2.79-7,7.22-7H283V29.58c0-4.23-3.71-7.22-8.78-7.22s-8.71,3-8.71,7.22h-1c0-4.75,4.1-8.26,9.82-8.26s9.75,3.51,9.75,8.26V43.23c0,2.67.91,4.1,3.58,4.1ZM283,41.54V35.36H271.65c-3.77,0-6.18,2.34-6.18,5.85,0,3.77,2.67,6.11,7.15,6.11A11.55,11.55,0,0,0,283,41.54Z"/>
      <path d="M308.12,21.58v1.17a7.56,7.56,0,0,0-2.47-.39,9.07,9.07,0,0,0-9.1,9V47.84h-1v-26h1V27a10.2,10.2,0,0,1,9.1-5.66A14.36,14.36,0,0,1,308.12,21.58Z"/>
      <path d="M356.22,0V47.84h-1V40a13.52,13.52,0,1,1,0-10.27V0Zm-1,34.84A12.48,12.48,0,1,0,342.7,47.32,12.48,12.48,0,0,0,355.18,34.84Z"/>
      <path d="M367.33,15.08a1.56,1.56,0,0,1,3.12,0,1.56,1.56,0,0,1-3.12,0Zm1,6.76h1v26h-1Z"/>
      <path d="M400.74,30.88v17h-1v-17a8.55,8.55,0,1,0-17.1,0v17h-1v-26h1v4.81a9.56,9.56,0,0,1,18.14,4.23Z"/>
      <path d="M428.69,0h1V47.78h-1Zm1.82,33.28,13.26-11.44h1.63L432.07,33.28l14.37,14.56h-1.49Z"/>
      <path d="M452.28,38.29V21.84h1V38.29c0,5,3.64,9,8.06,9s8.13-4,8.13-9V21.84h1V38.29c0,5.52-4.1,10.08-9.17,10.08S452.28,43.81,452.28,38.29Z"/>
      <path d="M500.32,30.88v17h-1v-17a8.55,8.55,0,1,0-17.1,0v17h-1v-26h1v4.81a9.56,9.56,0,0,1,18.14,4.23Z"/>
      <path d="M536.2,0V47.84h-1V40a13.52,13.52,0,1,1,0-10.27V0Zm-1,34.84a12.48,12.48,0,1,0-12.48,12.48A12.48,12.48,0,0,0,535.16,34.84Z"/>
      <path d="M545,43.36l1-.32c.85,2.34,4.1,4.29,7.41,4.29S560,45.24,560,41.6s-3.18-5-6.5-6.31c-3.51-1.37-7.15-2.86-7.15-7.35,0-4.81,4.1-6.63,7.09-6.63a8.09,8.09,0,0,1,6.17,3l-.84.65a6.29,6.29,0,0,0-5.27-2.54c-2.86,0-6.11,1.56-6.11,5.4s3.19,5.07,6.44,6.44c3.58,1.5,7.21,3,7.21,7.6,0,3.64-3.38,6.5-7.6,6.5C549.72,48.36,546.08,46.15,545,43.36Z"/>
      <path d="M586.9,0h1V47.78h-1Zm1.82,33.28L602,21.84h1.63L590.27,33.28l14.37,14.56h-1.49Z"/>
      <path d="M609.32,34.84a13.52,13.52,0,1,1,13.52,13.52A13.59,13.59,0,0,1,609.32,34.84Zm26,0a12.48,12.48,0,1,0-12.48,12.48A12.48,12.48,0,0,0,635.32,34.84ZM617.38,15.08a1.56,1.56,0,1,1,3.12,0,1.56,1.56,0,1,1-3.12,0Zm7.8,0a1.56,1.56,0,1,1,3.12,0,1.56,1.56,0,1,1-3.12,0Z"/>
      <path d="M672.76,34.84a13.5,13.5,0,0,1-26,5.14V63.44h-1V21.84h1v7.87a13.5,13.5,0,0,1,26,5.14Zm-1,0a12.48,12.48,0,1,0-12.48,12.48A12.48,12.48,0,0,0,671.72,34.84Z"/>
      <path d="M679.52,43.36l1-.32c.85,2.34,4.1,4.29,7.41,4.29s6.56-2.08,6.56-5.72-3.18-5-6.5-6.31c-3.51-1.37-7.15-2.86-7.15-7.35,0-4.81,4.1-6.63,7.09-6.63a8.09,8.09,0,0,1,6.17,3l-.84.65A6.29,6.29,0,0,0,688,22.43c-2.86,0-6.11,1.56-6.11,5.4s3.19,5.07,6.44,6.44c3.58,1.5,7.21,3,7.21,7.6,0,3.64-3.38,6.5-7.6,6.5C684.2,48.36,680.56,46.15,679.52,43.36Z"/>
      <path d="M706.36,22.88V42.71A4.55,4.55,0,0,0,711,47.32h2.86v.19a5.9,5.9,0,0,1-2.86.85,5.66,5.66,0,0,1-5.66-5.66V22.88H701v-1h4.36V10.53h1V21.84H714v1Z"/>
      <path d="M735.16,21.58v1.17a7.57,7.57,0,0,0-2.47-.39,9.07,9.07,0,0,0-9.1,9V47.84h-1v-26h1V27a10.21,10.21,0,0,1,9.1-5.66A14.37,14.37,0,0,1,735.16,21.58Z"/>
      <path d="M764.41,47.32v.52a2.45,2.45,0,0,1-1.5.52c-2.92,0-4.22-1.89-4.22-5.14-2,3.19-6.18,5.14-10.47,5.14-5.13,0-8.12-2.73-8.12-7.09s2.79-7,7.21-7h11.38V29.58c0-4.23-3.71-7.22-8.78-7.22s-8.71,3-8.71,7.22h-1c0-4.75,4.09-8.26,9.82-8.26s9.75,3.51,9.75,8.26V43.23c0,2.67.91,4.1,3.58,4.1Zm-5.72-5.79V35.36H747.31c-3.77,0-6.17,2.34-6.17,5.85,0,3.77,2.67,6.11,7.15,6.11A11.55,11.55,0,0,0,758.69,41.54ZM744.45,15.08a1.56,1.56,0,1,1,3.12,0,1.56,1.56,0,1,1-3.12,0Zm7.8,0a1.56,1.56,0,1,1,3.12,0,1.56,1.56,0,1,1-3.12,0Z"/>
      <path d="M769.09,34.84a13.54,13.54,0,0,1,26.13-4.94h-1a12.67,12.67,0,0,0-11.57-7.54,12.48,12.48,0,1,0,0,25,12.67,12.67,0,0,0,11.57-7.54h1a13.54,13.54,0,0,1-26.13-4.94Z"/>
      <path d="M804.32,0h1V47.78h-1Zm1.82,33.28L819.4,21.84H821L807.7,33.28l14.37,14.56h-1.49Z"/>
      <path d="M851.57,47.32v.52a2.45,2.45,0,0,1-1.5.52c-2.92,0-4.22-1.89-4.22-5.14-2,3.19-6.18,5.14-10.47,5.14-5.13,0-8.12-2.73-8.12-7.09s2.79-7,7.21-7h11.38V29.58c0-4.23-3.71-7.22-8.78-7.22s-8.71,3-8.71,7.22h-1c0-4.75,4.09-8.26,9.82-8.26s9.75,3.51,9.75,8.26V43.23c0,2.67.91,4.1,3.58,4.1Zm-5.72-5.79V35.36H834.48c-3.77,0-6.17,2.34-6.17,5.85,0,3.77,2.67,6.11,7.15,6.11A11.55,11.55,0,0,0,845.85,41.54Z"/>
    </g>
  </g>
</svg>
